#!OML:ASF E:\basketball\basketball\Project 1\Capture day 1\Session 1\Subject.ASF
:FULLY-SPECIFIED
:DEGREES
189
root -8.97184 13.9395 6.43931 16.8501 29.2576 -6.40214
lowerback 25.7501 6.37369 3.86623
upperback 13.0618 9.23896 2.01662
thorax 0.627424 4.81119 -2.188
lowerneck -38.3869 10.0029 1.69452
upperneck 0.0634818 15.501 -19.3538
head 7.62953 5.87323 -4.24279
rclavicle -6.20208e-014 3.73715e-014
rhumerus 128.118 -50.2121 -190.311
rradius 8.76469
rwrist 102.455
rhand -15.6895 80.4858
rfingers 7.12502
rthumb 10.4997 50.768
lclavicle -6.20208e-014 3.73715e-014
lhumerus -63.1244 -17.7813 110.954
lradius 33.6751
lwrist 24.6449
lhand -14.6793 30.1414
lfingers 7.12502
lthumb 11.474 59.8074
rfemur 28.0695 -4.26749 26.337
rtibia 19.5067
rfoot 8.48082 -0.400754
rtoes -31.624
lfemur -76.1901 10.7648 -38.9566
ltibia 60.3274
lfoot -3.18436 -1.2351
ltoes 12.3204
190
root -8.73848 13.8684 6.86988 16.9657 30.1943 -5.93902
lowerback 25.7328 6.14955 3.34843
upperback 13.0191 8.85756 1.90644
thorax 0.498966 4.60378 -1.94451
lowerneck -38.2575 10.0032 1.72551
upperneck -0.0349939 15.4097 -19.0271
head 7.5275 5.87779 -4.15971
rclavicle -1.19271e-013 9.70069e-014
rhumerus 93.2616 -62.3859 -148.244
rradius 9.73212
rwrist 73.8121
rhand -13.6281 79.8651
rfingers 7.12502
rthumb 12.4877 50.2582
lclavicle -1.19271e-013 9.70069e-014
lhumerus -60.8831 -15.5267 109.559
lradius 32.1271
lwrist 23.3521
lhand -14.3629 29.9509
lfingers 7.12502
lthumb 11.7792 59.5997
rfemur 26.1121 -7.03479 25.1468
rtibia 26.5175
rfoot 6.77723 -0.887885
rtoes -30.3426
lfemur -74.9575 10.9683 -40.4891
ltibia 62.4874
lfoot -6.6524 0.80141
ltoes 10.5774
191
root -8.47834 13.8607 7.31287 17.2432 31.0198 -5.46314
lowerback 25.5961 5.96574 2.78112
upperback 12.972 8.514 1.88497
thorax 0.407438 4.4093 -1.57351
lowerneck -37.1153 9.67541 1.27786
upperneck -1.32647 14.9168 -18.8254
head 6.83869 5.84586 -4.14248
rclavicle -3.18055e-015 -6.36111e-015
rhumerus 47.6636 -56.4324 -96.9679
rradius 11.623
rwrist 49.1301
rhand -14.6884 78.645
rfingers 7.12502
rthumb 11.4652 48.9785
lclavicle -3.18055e-015 -6.36111e-015
lhumerus -58.511 -12.9055 108.162
lradius 30.4614
lwrist 21.7127
lhand -14.4544 29.9646
lfingers 7.12502
lthumb 11.6909 59.6184
rfemur 23.742 -9.81064 23.6354
rtibia 33.7062
rfoot 5.55938 -0.572785
rtoes -31.1515
lfemur -73.3179 9.98974 -40.0961
ltibia 64.752
lfoot -10.9205 -1.01565
ltoes 14.3381
192
root -8.2122 13.867 7.74754 17.6098 31.8095 -5.0702
lowerback 25.4363 5.62864 2.4202
upperback 12.8766 8.01417 1.69622
thorax 0.330608 4.15351 -1.45413
lowerneck -38.4424 10.2857 2.44632
upperneck -0.0276247 15.3811 -18.6599
head 7.54646 5.88765 -4.15259
rclavicle -1.27222e-014 -3.49861e-014
rhumerus 30.9791 -45.9464 -77.8063
rradius 13.5504
rwrist 36.3765
rhand -17.2231 77.9809
rfingers 7.12502
rthumb 9.0201 48.1938
lclavicle -1.27222e-014 -3.49861e-014
lhumerus -56.1304 -10.0742 106.59
lradius 28.7246
lwrist 20.1038
lhand -15.0887 29.8791
lfingers 7.12502
lthumb 11.0792 59.5667
rfemur 21.0167 -12.393 22.184
rtibia 41.2148
rfoot 4.53677 -0.469526
rtoes -32.9459
lfemur -71.8321 8.55439 -38.8134
ltibia 67.034
lfoot -13.0027 -1.00886
ltoes 15.5131
193
root -7.96746 13.8275 8.15458 17.7911 32.5022 -4.97553
lowerback 25.4397 5.22354 2.23822
upperback 12.7155 7.4658 1.47418
thorax 0.134231 3.87911 -1.47617
lowerneck -38.4845 10.7517 3.14837
upperneck -0.0255977 15.6239 -18.4376
head 7.59112 6.02143 -4.13475
rclavicle 9.85972e-014 -7.95139e-016
rhumerus 23.0083 -37.1707 -68.6467
rradius 15.9874
rwrist 26.5664
rhand -18.3148 77.4582
rfingers 7.12502
rthumb 7.96655 47.6283
lclavicle 9.85972e-014 -7.95139e-016
lhumerus -53.958 -7.4215 105.165
lradius 27.1553
lwrist 18.8889
lhand -15.738 30.0216
lfingers 7.12502
lthumb 10.4529 59.7417
rfemur 18.2329 -14.4787 21.186
rtibia 48.625
rfoot 3.69646 -0.602645
rtoes -33.9961
lfemur -71.0886 8.05078 -38.0801
ltibia 69.2984
lfoot -14.6038 0.33296
ltoes 11.3472
194
root -7.74198 13.7523 8.54236 17.843 33.1192 -4.77313
lowerback 25.6792 4.85944 2.11545
upperback 12.6112 6.98536 1.24611
thorax -0.0977663 3.64241 -1.56798
lowerneck -37.7153 10.6452 2.97098
upperneck -0.92512 15.3436 -17.9226
head 7.07801 6.05495 -4.01164
rclavicle 2.54444e-014 -3.65764e-014
rhumerus 18.0005 -30.8962 -63.118
rradius 18.9461
rwrist 18.1488
rhand -17.9772 76.9229
rfingers 7.12502
rthumb 8.29229 47.1056
lclavicle 2.54444e-014 -3.65764e-014
lhumerus -51.9732 -5.45362 104.154
lradius 25.9601
lwrist 17.8344
lhand -15.9791 30.5077
lfingers 7.12502
lthumb 10.2203 60.2394
rfemur 15.3106 -16.1865 20.2336
rtibia 56.2298
rfoot 2.76121 -0.394916
rtoes -37.5193
lfemur -70.7216 8.34125 -38.1988
ltibia 71.7411
lfoot -15.953 0.197754
ltoes 10.5592
